<svg width="860" height="320" xmlns="http://www.w3.org/2000/svg"><defs><clipPath clipPathUnits="userSpaceOnUse" id="prefix__a"><path d="M0 240h645V0H0z"/></clipPath></defs><path d="M0 320h860V0H0z" fill="none"/><path d="M437.157 248.071v19.272h-73.645V142.067h28.709v106.004z" fill="#fff"/><g clip-path="url(#prefix__a)" transform="matrix(1.33333 0 0 -1.33333 0 320)"><path d="M205.775 177.58l-83.157 48.01a11 11 0 01-11 0L28.46 177.58a11 11 0 01-5.5-9.527V72.031c0-3.93 2.097-7.562 5.5-9.527l83.157-48.01a11.005 11.005 0 0111 0l83.158 48.01a11.002 11.002 0 015.5 9.527v96.022a11 11 0 01-5.5 9.526z" fill="none" stroke="#fff" stroke-width="9" stroke-miterlimit="10"/><path d="M86.116 30.992v136.212c0 3.93-2.097 7.562-5.5 9.527l-20.578 11.88a11 11 0 01-11 0l-20.578-11.88a11 11 0 01-5.5-9.527V82.056M149.273 32.63v123.334c0 3.93-2.097 7.562-5.5 9.527l-20.578 11.881a11.005 11.005 0 01-11 0l-20.578-11.88a11 11 0 01-5.5-9.528V35.314" fill="none" stroke="#fff" stroke-width="9" stroke-miterlimit="10"/><path d="M206.929 129.167l-20.578 11.881a11 11 0 01-11 0l-20.578-11.88M80.616 100.981l-20.578 11.881a11 11 0 01-11 0l-20.578-11.88" fill="none" stroke="#fff" stroke-width="9" stroke-linecap="square" stroke-miterlimit="10"/><path d="M133.148 134.275l-10.052-5.617v11.233l10.052 5.617z" fill="#fff"/><path d="M133.148 110.88l-10.052-5.617v11.234l10.052 5.617z" fill="#fe1a28"/><path d="M133.148 87.485l-10.052-5.617v11.233l10.052 5.617z" fill="#fff"/><path d="M70.298 148.327l-10.052-5.617v11.233l10.052 5.617z" fill="#ef4833"/><path d="M70.298 124.932l-10.052-5.617v11.234l10.052 5.617zM133.148 64.09l-10.052-5.617v11.234l10.052 5.617z" fill="#fff"/><path d="M70.298 71.12l-10.052-5.617v11.234l10.052 5.616zM197.148 99.183l-10.052-5.617V104.8l10.052 5.616z" fill="#5855b3"/><path d="M197.148 75.787l-10.052-5.617v11.234l10.052 5.617zM133.148 40.695l-10.052-5.617v11.233l10.052 5.617z" fill="#fff"/><path d="M243.868 225.97V11.589" fill="none" stroke="#fff" stroke-width="9" stroke-linecap="round" stroke-miterlimit="10"/><text transform="matrix(1 0 0 -1 344.974 133.83)" style="-inkscape-font-specification:Montserrat-Bold" font-weight="700" font-size="111.273" font-family="Montserrat" fill="#fff"><tspan x="0 85.458 125.85 198.512" y="0">CITE</tspan></text><path d="M341.731 117.369h18.025V39.482h-18.025zM434.306 62.625c0 6.565-5.007 9.68-14.354 9.68h-21.03V53.056h21.03c9.347 0 14.354 2.893 14.354 9.57m-35.383 41.168V85.435h17.914c8.79 0 13.574 3.115 13.574 9.235 0 6.12-4.784 9.124-13.574 9.124zm53.52-43.06c0-13.464-10.682-21.253-31.156-21.253h-40.278v77.888h38.053c19.472 0 29.486-8.123 29.486-20.25 0-7.79-4.006-13.798-10.347-17.136 8.678-2.782 14.242-9.458 14.242-19.25M501.627 102.681H486.94V75.532h14.687c11.016 0 16.58 5.118 16.58 13.574 0 8.568-5.564 13.575-16.58 13.575m16.913-63.2L503.52 61.18h-16.58V39.481h-18.025v77.888h33.714c20.807 0 33.825-10.793 33.825-28.263 0-11.683-5.897-20.25-16.022-24.59L537.9 39.481zM613.788 53.946V39.481h-60.307v77.887h58.861v-14.464h-40.947V85.991h36.162v-14.02h-36.162V53.946z" fill="#fff"/><path d="M294.081 101.109h16.17v16.17h-16.17z" fill="#5855b3"/><path d="M277.911 101.109h16.17v16.17h-16.17z" fill="#fff"/><path d="M310.251 117.279h16.17v16.17h-16.17z" fill="#fe1a28"/></g><path d="M164.327 172.162l.16-7.237 6.26-3.558 6.262-3.557.16 6.85c.088 3.766-.04 7.042-.284 7.28-.245.236-2.366 1.504-4.714 2.816-2.348 1.312-5.11 2.894-6.136 3.515l-1.867 1.129zM414.064 152.82v-10.53H435.123V163.349h-21.06z" fill="#ef4833"/><path d="M80.536 225.152v-7.114l4.126-2.37c2.27-1.304 5.215-2.99 6.546-3.749l2.419-1.378v14.227l-4.127 2.37a2702.95 2702.95 0 01-6.545 3.749l-2.419 1.378zM249.576 187.655v-7.09l6.225-3.486c3.424-1.917 6.37-3.485 6.546-3.485.176 0 .318 3.137.317 6.972l-.004 6.972-1.589.903c-.873.497-3.817 2.118-6.541 3.604l-4.954 2.7zM392.435 174.447v-10.53h21.06v21.06h-21.06z" fill="#95b0f7"/></svg>