<?xml version="1.0" encoding="UTF-8" standalone="no"?>
<!-- Created with Inkscape (http://www.inkscape.org/) -->

<svg
   version="1.1"
   id="svg9"
   xml:space="preserve"
   width="860"
   height="320"
   viewBox="0 0 860 320"
   sodipodi:docname="Cite_Libre.svg"
   inkscape:version="1.1 (c68e22c387, 2021-05-23)"
   xmlns:inkscape="http://www.inkscape.org/namespaces/inkscape"
   xmlns:sodipodi="http://sodipodi.sourceforge.net/DTD/sodipodi-0.dtd"
   xmlns="http://www.w3.org/2000/svg"
   xmlns:svg="http://www.w3.org/2000/svg"><defs
     id="defs13"><clipPath
       clipPathUnits="userSpaceOnUse"
       id="clipPath29"><path
         d="M 0,240 H 645 V 0 H 0 Z"
         id="path27" /></clipPath></defs><sodipodi:namedview
     id="namedview11"
     pagecolor="#ffffff"
     bordercolor="#666666"
     borderopacity="1.0"
     inkscape:pageshadow="2"
     inkscape:pageopacity="0.0"
     inkscape:pagecheckerboard="0"
     showgrid="false"
     inkscape:zoom="1.7569767"
     inkscape:cx="321.8597"
     inkscape:cy="160.2184"
     inkscape:window-width="1768"
     inkscape:window-height="1003"
     inkscape:window-x="19"
     inkscape:window-y="4"
     inkscape:window-maximized="0"
     inkscape:current-layer="g15" /><g
     id="g15"
     inkscape:groupmode="layer"
     inkscape:label="Cite_Libre"
     transform="matrix(1.3333333,0,0,-1.3333333,0,320)"><path
       d="M 0,0 H 645 V 240 H 0 Z"
       style="fill:#ffffff;fill-opacity:1;fill-rule:nonzero;stroke:none"
       id="path17" /><g
       id="g19"
       transform="translate(327.8677,53.9464)"><path
         d="m 0,0 v -14.454 h -55.234 v 93.957 h 21.532 V 0 Z"
         style="fill:#0e3968;fill-opacity:1;fill-rule:nonzero;stroke:none"
         id="path21" /></g><g
       id="g23"><g
         id="g25"
         clip-path="url(#clipPath29)"><g
           id="g31"
           transform="translate(205.7747,177.5791)"><path
             d="m 0,0 -83.157,48.011 c -3.404,1.965 -7.597,1.965 -11,0 L -177.315,0 c -3.403,-1.965 -5.5,-5.596 -5.5,-9.526 v -96.022 c 0,-3.93 2.097,-7.562 5.5,-9.527 l 83.157,-48.011 c 3.404,-1.964 7.597,-1.964 11,0 L 0,-115.075 c 3.403,1.965 5.5,5.597 5.5,9.527 V -9.526 C 5.5,-5.596 3.403,-1.965 0,0 Z"
             style="fill:none;stroke:#0e3968;stroke-width:9;stroke-linecap:butt;stroke-linejoin:miter;stroke-miterlimit:10;stroke-dasharray:none;stroke-opacity:1"
             id="path33" /></g><g
           id="g35"
           transform="translate(86.1162,30.9922)"><path
             d="m 0,0 v 136.212 c 0,3.93 -2.097,7.562 -5.5,9.527 l -20.578,11.88 c -3.404,1.965 -7.597,1.965 -11,0 l -20.578,-11.88 c -3.404,-1.965 -5.5,-5.597 -5.5,-9.527 V 51.064"
             style="fill:none;stroke:#0e3968;stroke-width:9;stroke-linecap:butt;stroke-linejoin:miter;stroke-miterlimit:10;stroke-dasharray:none;stroke-opacity:1"
             id="path37" /></g><g
           id="g39"
           transform="translate(149.2726,32.6294)"><path
             d="m 0,0 v 123.335 c 0,3.93 -2.097,7.562 -5.5,9.527 l -20.578,11.881 c -3.404,1.964 -7.597,1.964 -11,0 l -20.578,-11.881 c -3.404,-1.965 -5.5,-5.597 -5.5,-9.527 V 2.685"
             style="fill:none;stroke:#0e3968;stroke-width:9;stroke-linecap:butt;stroke-linejoin:miter;stroke-miterlimit:10;stroke-dasharray:none;stroke-opacity:1"
             id="path41" /></g><g
           id="g43"
           transform="translate(206.929,129.1675)"><path
             d="m 0,0 -20.578,11.881 c -3.404,1.965 -7.597,1.965 -11,0 L -52.156,0"
             style="fill:none;stroke:#0e3968;stroke-width:9;stroke-linecap:square;stroke-linejoin:miter;stroke-miterlimit:10;stroke-dasharray:none;stroke-opacity:1"
             id="path45" /></g><g
           id="g47"
           transform="translate(80.6162,100.9812)"><path
             d="m 0,0 -20.578,11.881 c -3.404,1.965 -7.597,1.965 -11,0 L -52.156,0"
             style="fill:none;stroke:#0e3968;stroke-width:9;stroke-linecap:square;stroke-linejoin:miter;stroke-miterlimit:10;stroke-dasharray:none;stroke-opacity:1"
             id="path49" /></g><g
           id="g51"
           transform="translate(133.1475,134.2754)"><path
             d="M 0,0 -10.052,-5.617 V 5.616 L 0,11.233 Z"
             style="fill:#0e3968;fill-opacity:1;fill-rule:nonzero;stroke:none"
             id="path53" /></g><g
           id="g55"
           transform="translate(133.1475,110.8799)"><path
             d="M 0,0 -10.052,-5.617 V 5.617 L 0,11.234 Z"
             style="fill:#fe1a28;fill-opacity:1;fill-rule:nonzero;stroke:none"
             id="path57" /></g><g
           id="g59"
           transform="translate(133.1475,87.4854)"><path
             d="M 0,0 -10.052,-5.617 V 5.616 L 0,11.233 Z"
             style="fill:#0e3968;fill-opacity:1;fill-rule:nonzero;stroke:none"
             id="path61" /></g><g
           id="g63"
           transform="translate(70.2979,148.3271)"><path
             d="M 0,0 -10.052,-5.617 V 5.616 L 0,11.233 Z"
             style="fill:#ef4833;fill-opacity:1;fill-rule:nonzero;stroke:none"
             id="path65" /></g><g
           id="g67"
           transform="translate(70.2979,124.9316)"><path
             d="M 0,0 -10.052,-5.617 V 5.617 L 0,11.234 Z"
             style="fill:#0e3968;fill-opacity:1;fill-rule:nonzero;stroke:none"
             id="path69" /></g><g
           id="g71"
           transform="translate(133.1475,64.0898)"><path
             d="M 0,0 -10.052,-5.617 V 5.617 L 0,11.234 Z"
             style="fill:#0e3968;fill-opacity:1;fill-rule:nonzero;stroke:none"
             id="path73" /></g><g
           id="g75"
           transform="translate(70.2979,71.1201)"><path
             d="M 0,0 -10.052,-5.617 V 5.617 L 0,11.233 Z"
             style="fill:#5855b3;fill-opacity:1;fill-rule:nonzero;stroke:none"
             id="path77" /></g><g
           id="g79"
           transform="translate(197.1475,99.1826)"><path
             d="M 0,0 -10.052,-5.617 V 5.617 L 0,11.233 Z"
             style="fill:#5855b3;fill-opacity:1;fill-rule:nonzero;stroke:none"
             id="path81" /></g><g
           id="g83"
           transform="translate(197.1475,75.7871)"><path
             d="M 0,0 -10.052,-5.617 V 5.617 L 0,11.234 Z"
             style="fill:#0e3968;fill-opacity:1;fill-rule:nonzero;stroke:none"
             id="path85" /></g><g
           id="g87"
           transform="translate(133.1475,40.6953)"><path
             d="M 0,0 -10.052,-5.617 V 5.616 L 0,11.233 Z"
             style="fill:#0e3968;fill-opacity:1;fill-rule:nonzero;stroke:none"
             id="path89" /></g><g
           id="g91"
           transform="translate(243.8678,225.9709)"><path
             d="M 0,0 V -214.383"
             style="fill:none;stroke:#0e3968;stroke-width:9;stroke-linecap:round;stroke-linejoin:miter;stroke-miterlimit:10;stroke-dasharray:none;stroke-opacity:1"
             id="path93" /></g><text
           transform="matrix(1,0,0,-1,344.9741,133.8306)"
           style="font-variant:normal;font-weight:bold;font-stretch:normal;font-size:111.273px;font-family:Montserrat;-inkscape-font-specification:Montserrat-Bold;writing-mode:lr-tb;fill:#0e3968;fill-opacity:1;fill-rule:nonzero;stroke:none"
           id="text97"><tspan
             x="0 85.45797 125.85021 198.51175"
             y="0"
             sodipodi:role="line"
             id="tspan95">CITE</tspan></text><path
           d="m 341.731,117.369 h 18.025 V 39.482 h -18.025 z"
           style="fill:#0e3968;fill-opacity:1;fill-rule:nonzero;stroke:none"
           id="path99" /><g
           id="g101"
           transform="translate(434.3059,62.6251)"><path
             d="M 0,0 C 0,6.565 -5.007,9.68 -14.354,9.68 H -35.383 V -9.569 h 21.029 C -5.007,-9.569 0,-6.676 0,0 M -35.383,41.169 V 22.81 h 17.914 c 8.79,0 13.574,3.115 13.574,9.235 0,6.12 -4.784,9.124 -13.574,9.124 z m 53.52,-43.061 c 0,-13.463 -10.682,-21.252 -31.156,-21.252 h -40.278 v 77.888 h 38.053 c 19.472,0 29.486,-8.123 29.486,-20.251 0,-7.789 -4.006,-13.797 -10.347,-17.135 8.678,-2.782 14.242,-9.458 14.242,-19.25"
             style="fill:#0e3968;fill-opacity:1;fill-rule:nonzero;stroke:none"
             id="path103" /></g><g
           id="g105"
           transform="translate(501.6272,102.6813)"><path
             d="M 0,0 H -14.687 V -27.149 H 0 c 11.016,0 16.579,5.118 16.579,13.574 C 16.579,-5.007 11.016,0 0,0 M 16.913,-63.2 1.892,-41.502 H 1.002 -14.687 V -63.2 H -32.712 V 14.688 H 1.002 c 20.807,0 33.825,-10.793 33.825,-28.263 0,-11.683 -5.897,-20.25 -16.022,-24.59 L 36.273,-63.2 Z"
             style="fill:#0e3968;fill-opacity:1;fill-rule:nonzero;stroke:none"
             id="path107" /></g><g
           id="g109"
           transform="translate(613.7883,53.9464)"><path
             d="M 0,0 V -14.465 H -60.307 V 63.422 H -1.446 V 48.958 H -42.393 V 32.045 h 36.162 v -14.02 h -36.162 l 0,-18.025 z"
             style="fill:#0e3968;fill-opacity:1;fill-rule:nonzero;stroke:none"
             id="path111" /></g><path
           d="m 294.081,101.109 h 16.17 v 16.17 h -16.17 z"
           style="fill:#5855b3;fill-opacity:1;fill-rule:nonzero;stroke:none"
           id="path113" /><path
           d="m 277.911,101.109 h 16.17 v 16.17 h -16.17 z"
           style="fill:#ffffff;fill-opacity:1;fill-rule:nonzero;stroke:none"
           id="path115" /><path
           d="m 310.251,117.279 h 16.17 v 16.17 h -16.17 z"
           style="fill:#fe1a28;fill-opacity:1;fill-rule:nonzero;stroke:none"
           id="path117" /></g></g><path
       style="fill:#ef4833;fill-opacity:1;stroke-width:0.56916"
       d="m 164.32737,172.16211 0.15972,-7.23752 6.26076,-3.55729 6.26075,-3.55729 0.16058,6.84905 c 0.0883,3.76697 -0.0397,7.04305 -0.28458,7.28017 -0.24484,0.23712 -2.36607,1.50469 -4.71385,2.81682 -2.34779,1.31214 -5.10894,2.89372 -6.1359,3.51464 l -1.8672,1.12894 z"
       id="path5940"
       transform="matrix(0.75000002,0,0,-0.75000002,0,240.00001)" /><path
       style="fill:#ef4833;fill-opacity:1;stroke-width:0.56916"
       d="m 414.06353,152.81932 v -10.52945 h 10.52945 10.52946 v 10.52945 10.52946 h -10.52946 -10.52945 z"
       id="path6035"
       transform="matrix(0.75000002,0,0,-0.75000002,0,240.00001)" /><path
       style="fill:#4c68b1;fill-opacity:1;stroke-width:0.56916"
       d="m 80.536069,225.15168 v -7.11338 l 4.126406,-2.37054 c 2.269524,-1.30379 5.214924,-2.99068 6.545334,-3.74863 l 2.418928,-1.3781 v 7.11338 7.11338 l -4.126406,2.37053 c -2.269524,1.3038 -5.214924,2.99068 -6.545334,3.74864 l -2.418928,1.3781 z"
       id="path6241"
       transform="matrix(0.75000002,0,0,-0.75000002,0,240.00001)" /><path
       style="fill:#4c68b1;fill-opacity:1;stroke-width:0.56916"
       d="m 249.57644,187.65505 v -7.08969 l 6.22475,-3.48586 c 3.42361,-1.91722 6.36901,-3.48585 6.54533,-3.48585 0.17632,0 0.31897,3.13749 0.31699,6.9722 l -0.004,6.9722 -1.58815,0.90314 c -0.87349,0.49673 -3.81727,2.11823 -6.54174,3.60334 l -4.95359,2.7002 z"
       id="path6336"
       transform="matrix(0.75000002,0,0,-0.75000002,0,240.00001)" /><path
       style="fill:#4c68b1;fill-opacity:1;stroke-width:0.56916"
       d="m 392.43547,174.44739 v -10.52945 h 10.52945 10.52945 v 10.52945 10.52945 h -10.52945 -10.52945 z"
       id="path6431"
       transform="matrix(0.75000002,0,0,-0.75000002,0,240.00001)" /></g></svg>
